<svg width="588" height="278" viewBox="0 0 588 278" fill="none" xmlns="http://www.w3.org/2000/svg">
<path d="M83.4609 107V109H85.4609V107H83.4609ZM62.3672 107H60.3672V109H62.3672V107ZM62.3672 63.125H64.3672V61.125H62.3672V63.125ZM21.2344 63.125V61.125H19.2344V63.125H21.2344ZM21.2344 107V109H23.2344V107H21.2344ZM0.140625 107H-1.85938V109H0.140625V107ZM0.140625 4.625V2.625H-1.85938V4.625H0.140625ZM21.2344 4.625H23.2344V2.625H21.2344V4.625ZM21.2344 46.1094H19.2344V48.1094H21.2344V46.1094ZM62.3672 46.1094V48.1094H64.3672V46.1094H62.3672ZM62.3672 4.625V2.625H60.3672V4.625H62.3672ZM83.4609 4.625H85.4609V2.625H83.4609V4.625ZM83.4609 105H62.3672V109H83.4609V105ZM64.3672 107V63.125H60.3672V107H64.3672ZM62.3672 61.125H21.2344V65.125H62.3672V61.125ZM19.2344 63.125V107H23.2344V63.125H19.2344ZM21.2344 105H0.140625V109H21.2344V105ZM2.14062 107V4.625H-1.85938V107H2.14062ZM0.140625 6.625H21.2344V2.625H0.140625V6.625ZM19.2344 4.625V46.1094H23.2344V4.625H19.2344ZM21.2344 48.1094H62.3672V44.1094H21.2344V48.1094ZM64.3672 46.1094V4.625H60.3672V46.1094H64.3672ZM62.3672 6.625H83.4609V2.625H62.3672V6.625ZM81.4609 4.625V107H85.4609V4.625H81.4609ZM122.062 107V109H124.062V107H122.062ZM101.672 107H99.6719V109H101.672V107ZM101.672 30.9219V28.9219H99.6719V30.9219H101.672ZM122.062 30.9219H124.062V28.9219H122.062V30.9219ZM103.5 3.71094L102.119 2.26423L102.111 2.27216L102.103 2.28019L103.5 3.71094ZM120.094 18.8281L118.729 17.366L118.721 17.3737L118.713 17.3814L120.094 18.8281ZM103.57 18.8281L102.189 20.2748L102.197 20.2826L102.206 20.2902L103.57 18.8281ZM122.062 105H101.672V109H122.062V105ZM103.672 107V30.9219H99.6719V107H103.672ZM101.672 32.9219H122.062V28.9219H101.672V32.9219ZM120.062 30.9219V107H124.062V30.9219H120.062ZM102.477 11.2344C102.477 8.67752 103.301 6.70147 104.897 5.14169L102.103 2.28019C99.6682 4.65791 98.4766 7.69748 98.4766 11.2344H102.477ZM104.881 5.15765C106.489 3.62257 108.74 2.75781 111.867 2.75781V-1.24219C107.963 -1.24219 104.636 -0.138191 102.119 2.26423L104.881 5.15765ZM111.867 2.75781C114.939 2.75781 117.17 3.61783 118.783 5.15765L121.545 2.26423C119.033 -0.133456 115.732 -1.24219 111.867 -1.24219V2.75781ZM118.783 5.15765C120.421 6.72106 121.258 8.69223 121.258 11.2344H125.258C125.258 7.68277 124.032 4.63831 121.545 2.26423L118.783 5.15765ZM121.258 11.2344C121.258 13.8186 120.402 15.805 118.729 17.366L121.458 20.2902C124.005 17.9137 125.258 14.8377 125.258 11.2344H121.258ZM118.713 17.3814C117.095 18.9261 114.884 19.7812 111.867 19.7812V23.7812C115.694 23.7812 118.968 22.6677 121.475 20.2748L118.713 17.3814ZM111.867 19.7812C108.852 19.7812 106.607 18.9264 104.935 17.366L102.206 20.2902C104.753 22.6674 108.039 23.7812 111.867 23.7812V19.7812ZM104.951 17.3814C103.32 15.8243 102.477 13.8332 102.477 11.2344H98.4766C98.4766 14.823 99.6956 17.8945 102.189 20.2748L104.951 17.3814ZM143.156 89.1406L141.806 87.665L141.798 87.6723L141.79 87.6796L143.156 89.1406ZM159.609 89.1406L158.244 90.6017L158.251 90.609L158.259 90.6162L159.609 89.1406ZM159.68 104.82L161.028 106.297L161.037 106.289L161.045 106.281L159.68 104.82ZM143.156 104.82L141.79 106.281L141.799 106.289L141.808 106.297L143.156 104.82ZM141.922 97.0156C141.922 94.2761 142.812 92.2006 144.522 90.6017L141.79 87.6796C139.188 90.1119 137.922 93.2864 137.922 97.0156H141.922ZM144.506 90.6162C146.303 88.9724 148.548 88.1172 151.383 88.1172V84.1172C147.655 84.1172 144.416 85.2776 141.806 87.665L144.506 90.6162ZM151.383 88.1172C154.274 88.1172 156.506 88.9773 158.244 90.6017L160.975 87.6796C158.4 85.2727 155.148 84.1172 151.383 84.1172V88.1172ZM158.259 90.6162C160.011 92.2191 160.914 94.2903 160.914 97.0156H164.914C164.914 93.2722 163.614 90.0934 160.959 87.665L158.259 90.6162ZM160.914 97.0156C160.914 99.6987 160.031 101.754 158.314 103.359L161.045 106.281C163.641 103.855 164.914 100.708 164.914 97.0156H160.914ZM158.331 103.343C156.6 104.924 154.342 105.773 151.383 105.773V109.773C155.174 109.773 158.446 108.655 161.028 106.297L158.331 103.343ZM151.383 105.773C148.479 105.773 146.241 104.928 144.505 103.343L141.808 106.297C144.384 108.65 147.631 109.773 151.383 109.773V105.773ZM144.522 103.359C142.805 101.754 141.922 99.6987 141.922 97.0156H137.922C137.922 100.708 139.195 103.855 141.79 106.281L144.522 103.359ZM22.5703 276V278H24.5703V276H22.5703ZM1.47656 276H-0.523438V278H1.47656V276ZM1.47656 173.625V171.625H-0.523438V173.625H1.47656ZM22.5703 173.625H24.5703V171.625H22.5703V173.625ZM22.5703 274H1.47656V278H22.5703V274ZM3.47656 276V173.625H-0.523438V276H3.47656ZM1.47656 175.625H22.5703V171.625H1.47656V175.625ZM20.5703 173.625V276H24.5703V173.625H20.5703ZM46.6875 205.055L45.6829 206.784L46.9186 207.502L47.9981 206.565L46.6875 205.055ZM37.125 199.5L35.4382 198.425L34.3187 200.183L36.1204 201.229L37.125 199.5ZM43.3828 179.883L45.3824 179.924L45.3828 179.904V179.883H43.3828ZM43.3828 168V166H41.3828V168H43.3828ZM59.5547 168H61.5547V166H59.5547V168ZM47.6921 203.325L38.1296 197.771L36.1204 201.229L45.6829 206.784L47.6921 203.325ZM38.8118 200.575C43.0174 193.973 45.2333 187.081 45.3824 179.924L41.3832 179.841C41.2511 186.185 39.2951 192.371 35.4382 198.425L38.8118 200.575ZM45.3828 179.883V168H41.3828V179.883H45.3828ZM43.3828 170H59.5547V166H43.3828V170ZM57.5547 168V178.898H61.5547V168H57.5547ZM57.5547 178.898C57.5547 182.746 56.4852 187.021 54.2333 191.75L57.8448 193.469C60.2804 188.354 61.5547 183.488 61.5547 178.898H57.5547ZM54.2333 191.75C52.001 196.437 49.0474 200.36 45.3769 203.544L47.9981 206.565C52.1088 202.999 55.3896 198.625 57.8448 193.469L54.2333 191.75ZM91.5469 199.922L93.5414 199.774L93.4036 197.922H91.5469V199.922ZM92.1797 208.43L90.1852 208.578L90.5575 213.583L93.7296 209.694L92.1797 208.43ZM134.227 210.117L132.418 210.972L133.901 214.107L135.872 211.254L134.227 210.117ZM175.5 205.758L173.965 207.04L173.971 207.047L175.5 205.758ZM181.547 276V278H183.547V276H181.547ZM161.156 276H159.156V278H161.156V276ZM158.625 218.062L157.091 219.346L157.099 219.355L157.106 219.364L158.625 218.062ZM137.039 223.758L135.184 223.01L135.039 223.371L135.039 223.761L137.039 223.758ZM137.109 276V278H139.112L139.109 275.997L137.109 276ZM116.789 276H114.789V278H116.789V276ZM92.8125 222.211L91.0521 221.262L90.8125 221.706V222.211H92.8125ZM92.8125 276V278H94.8125V276H92.8125ZM72.4922 276H70.4922V278H72.4922V276ZM72.4922 199.922V197.922H70.4922V199.922H72.4922ZM89.5524 200.07L90.1852 208.578L94.1742 208.281L93.5414 199.774L89.5524 200.07ZM93.7296 209.694C98.708 203.59 105.407 200.516 114.047 200.516V196.516C104.311 196.516 96.4326 200.051 90.6298 207.166L93.7296 209.694ZM114.047 200.516C118.686 200.516 122.452 201.431 125.443 203.15C128.416 204.859 130.746 207.434 132.418 210.972L136.035 209.262C134.051 205.066 131.19 201.84 127.436 199.682C123.7 197.534 119.205 196.516 114.047 196.516V200.516ZM135.872 211.254C140.82 204.093 147.804 200.516 157.078 200.516V196.516C146.571 196.516 138.321 200.673 132.581 208.98L135.872 211.254ZM157.078 200.516C164.933 200.516 170.424 202.799 173.965 207.04L177.035 204.476C172.513 199.06 165.723 196.516 157.078 196.516V200.516ZM173.971 207.047C177.571 211.317 179.547 217.985 179.547 227.414H183.547C183.547 217.531 181.492 209.762 177.029 204.469L173.971 207.047ZM179.547 227.414V276H183.547V227.414H179.547ZM181.547 274H161.156V278H181.547V274ZM163.156 276V227.484H159.156V276H163.156ZM163.156 227.484C163.156 222.988 162.29 219.266 160.144 216.761L157.106 219.364C158.335 220.797 159.156 223.356 159.156 227.484H163.156ZM160.159 216.779C157.907 214.09 154.19 213.039 149.695 213.039V217.039C153.732 217.039 155.968 218.004 157.091 219.346L160.159 216.779ZM149.695 213.039C146.322 213.039 143.329 213.848 140.826 215.572C138.328 217.293 136.47 219.822 135.184 223.01L138.894 224.506C139.952 221.881 141.375 220.051 143.096 218.866C144.812 217.683 146.975 217.039 149.695 217.039V213.039ZM135.039 223.761L135.109 276.003L139.109 275.997L139.039 223.755L135.039 223.761ZM137.109 274H116.789V278H137.109V274ZM118.789 276V227.555H114.789V276H118.789ZM118.789 227.555C118.789 222.968 117.901 219.182 115.688 216.67L112.687 219.314C113.943 220.74 114.789 223.329 114.789 227.555H118.789ZM115.688 216.67C113.399 214.071 109.741 213.039 105.328 213.039V217.039C109.259 217.039 111.508 217.976 112.687 219.314L115.688 216.67ZM105.328 213.039C102.166 213.039 99.3243 213.696 96.8806 215.097C94.4305 216.501 92.4946 218.586 91.0521 221.262L94.5729 223.16C95.7085 221.054 97.1476 219.554 98.8694 218.567C100.598 217.577 102.725 217.039 105.328 217.039V213.039ZM90.8125 222.211V276H94.8125V222.211H90.8125ZM92.8125 274H72.4922V278H92.8125V274ZM74.4922 276V199.922H70.4922V276H74.4922ZM72.4922 201.922H91.5469V197.922H72.4922V201.922ZM266.484 234.938L268.169 233.859L266.776 231.684L265.019 233.577L266.484 234.938ZM255.516 246.75L254.05 245.389L253.516 245.965V246.75H255.516ZM255.516 276V278H257.516V276H255.516ZM234.422 276H232.422V278H234.422V276ZM234.422 173.625V171.625H232.422V173.625H234.422ZM255.516 173.625H257.516V171.625H255.516V173.625ZM255.516 220.031H253.516V226.168L257.132 221.21L255.516 220.031ZM264.797 207.305L263.216 206.08L263.198 206.103L263.181 206.126L264.797 207.305ZM290.883 173.625V171.625H289.902L289.302 172.4L290.883 173.625ZM316.828 173.625L318.391 174.874L320.986 171.625H316.828V173.625ZM280.477 219.117L278.914 217.869L278.008 219.003L278.806 220.216L280.477 219.117ZM317.883 276V278H321.592L319.554 274.901L317.883 276ZM292.781 276L291.097 277.079L291.687 278H292.781V276ZM265.019 233.577L254.05 245.389L256.981 248.111L267.95 236.298L265.019 233.577ZM253.516 246.75V276H257.516V246.75H253.516ZM255.516 274H234.422V278H255.516V274ZM236.422 276V173.625H232.422V276H236.422ZM234.422 175.625H255.516V171.625H234.422V175.625ZM253.516 173.625V220.031H257.516V173.625H253.516ZM257.132 221.21L266.413 208.483L263.181 206.126L253.9 218.853L257.132 221.21ZM266.378 208.529L292.464 174.85L289.302 172.4L263.216 206.08L266.378 208.529ZM290.883 175.625H316.828V171.625H290.883V175.625ZM315.266 172.376L278.914 217.869L282.039 220.366L318.391 174.874L315.266 172.376ZM278.806 220.216L316.212 277.099L319.554 274.901L282.148 218.018L278.806 220.216ZM317.883 274H292.781V278H317.883V274ZM294.465 274.921L268.169 233.859L264.8 236.016L291.097 277.079L294.465 274.921ZM330.398 267.141L328.999 268.569L329.003 268.574L330.398 267.141ZM324.352 217.359L326.146 218.243L326.149 218.237L324.352 217.359ZM336.867 203.438L337.896 205.152L337.901 205.15L336.867 203.438ZM379.969 208.359L378.487 209.703L378.493 209.709L379.969 208.359ZM388.969 244.57V246.57H390.969V244.57H388.969ZM340.523 244.57V242.57H338.242L338.541 244.832L340.523 244.57ZM346.43 256.523L345.08 258L345.091 258.009L346.43 256.523ZM377.367 252.516L378.859 251.183L377.26 249.393L375.788 251.289L377.367 252.516ZM387.352 263.695L388.985 264.849L389.903 263.55L388.843 262.363L387.352 263.695ZM374.977 273.82L375.812 275.638L375.818 275.635L375.825 275.631L374.977 273.82ZM345.516 219.047L344.052 217.684L344.045 217.691L344.039 217.698L345.516 219.047ZM340.734 230.719L338.753 230.444L338.437 232.719H340.734V230.719ZM369 230.719V232.719H371V230.719H369ZM369 229.102H371V229.081L371 229.06L369 229.102ZM365.344 218.695L363.889 220.068L363.895 220.075L363.902 220.082L365.344 218.695ZM357.68 275.406C346.967 275.406 338.399 272.137 331.793 265.707L329.003 268.574C336.46 275.832 346.08 279.406 357.68 279.406V275.406ZM331.798 265.712C325.261 259.307 321.922 250.738 321.922 239.789H317.922C317.922 251.621 321.567 261.287 328.999 268.569L331.798 265.712ZM321.922 239.789V237.82H317.922V239.789H321.922ZM321.922 237.82C321.922 230.442 323.346 223.931 326.146 218.243L322.557 216.476C319.451 222.788 317.922 229.917 317.922 237.82H321.922ZM326.149 218.237C328.945 212.512 332.861 208.174 337.896 205.152L335.838 201.723C330.092 205.17 325.665 210.113 322.554 216.482L326.149 218.237ZM337.901 205.15C342.998 202.074 348.822 200.516 355.43 200.516V196.516C348.163 196.516 341.612 198.239 335.834 201.725L337.901 205.15ZM355.43 200.516C365.379 200.516 372.98 203.632 378.487 209.703L381.45 207.016C375.051 199.962 366.292 196.516 355.43 196.516V200.516ZM378.493 209.709C384.051 215.789 386.969 224.546 386.969 236.273H390.969C390.969 223.907 387.886 214.055 381.445 207.01L378.493 209.709ZM386.969 236.273V244.57H390.969V236.273H386.969ZM388.969 242.57H340.523V246.57H388.969V242.57ZM338.541 244.832C339.25 250.204 341.407 254.641 345.08 257.999L347.779 255.047C344.89 252.405 343.109 248.874 342.506 244.308L338.541 244.832ZM345.091 258.009C348.834 261.384 353.527 263.023 359.016 263.023V259.023C354.379 259.023 350.681 257.663 347.769 255.038L345.091 258.009ZM359.016 263.023C367.397 263.023 374.124 259.95 378.947 253.743L375.788 251.289C371.798 256.425 366.29 259.023 359.016 259.023V263.023ZM375.875 253.848L385.86 265.028L388.843 262.363L378.859 251.183L375.875 253.848ZM385.718 262.541C382.889 266.546 379.046 269.706 374.128 272.009L375.825 275.631C381.314 273.06 385.72 269.47 388.985 264.849L385.718 262.541ZM374.142 272.003C369.227 274.261 363.75 275.406 357.68 275.406V279.406C364.265 279.406 370.32 278.161 375.812 275.638L374.142 272.003ZM355.359 212.969C350.826 212.969 346.996 214.522 344.052 217.684L346.979 220.41C349.098 218.134 351.831 216.969 355.359 216.969V212.969ZM344.039 217.698C341.195 220.811 339.491 225.131 338.753 230.444L342.715 230.994C343.384 226.182 344.868 222.721 346.992 220.396L344.039 217.698ZM340.734 232.719H369V228.719H340.734V232.719ZM371 230.719V229.102H367V230.719H371ZM371 229.06C370.899 224.227 369.58 220.215 366.785 217.309L363.902 220.082C365.795 222.051 366.914 224.976 367 229.143L371 229.06ZM366.799 217.323C363.983 214.338 360.069 212.969 355.359 212.969V216.969C359.275 216.969 362.017 218.083 363.889 220.068L366.799 217.323ZM419.625 199.922L421.619 199.774L421.482 197.922H419.625V199.922ZM420.258 208.43L418.263 208.578L418.636 213.583L421.808 209.694L420.258 208.43ZM462.305 210.117L460.497 210.972L461.979 214.107L463.95 211.254L462.305 210.117ZM503.578 205.758L502.043 207.04L502.049 207.047L503.578 205.758ZM509.625 276V278H511.625V276H509.625ZM489.234 276H487.234V278H489.234V276ZM486.703 218.062L485.17 219.346L485.177 219.355L485.185 219.364L486.703 218.062ZM465.117 223.758L463.262 223.01L463.117 223.371L463.117 223.761L465.117 223.758ZM465.188 276V278H467.19L467.187 275.997L465.188 276ZM444.867 276H442.867V278H444.867V276ZM420.891 222.211L419.13 221.262L418.891 221.706V222.211H420.891ZM420.891 276V278H422.891V276H420.891ZM400.57 276H398.57V278H400.57V276ZM400.57 199.922V197.922H398.57V199.922H400.57ZM417.631 200.07L418.263 208.578L422.252 208.281L421.619 199.774L417.631 200.07ZM421.808 209.694C426.786 203.59 433.485 200.516 442.125 200.516V196.516C432.39 196.516 424.511 200.051 418.708 207.166L421.808 209.694ZM442.125 200.516C446.764 200.516 450.531 201.431 453.521 203.15C456.494 204.859 458.824 207.434 460.497 210.972L464.113 209.262C462.129 205.066 459.268 201.84 455.514 199.682C451.778 197.534 447.283 196.516 442.125 196.516V200.516ZM463.95 211.254C468.898 204.093 475.882 200.516 485.156 200.516V196.516C474.649 196.516 466.399 200.673 460.659 208.98L463.95 211.254ZM485.156 200.516C493.011 200.516 498.502 202.799 502.043 207.04L505.113 204.476C500.591 199.06 493.801 196.516 485.156 196.516V200.516ZM502.049 207.047C505.649 211.317 507.625 217.985 507.625 227.414H511.625C511.625 217.531 509.57 209.762 505.107 204.469L502.049 207.047ZM507.625 227.414V276H511.625V227.414H507.625ZM509.625 274H489.234V278H509.625V274ZM491.234 276V227.484H487.234V276H491.234ZM491.234 227.484C491.234 222.988 490.368 219.266 488.222 216.761L485.185 219.364C486.413 220.797 487.234 223.356 487.234 227.484H491.234ZM488.237 216.779C485.986 214.09 482.268 213.039 477.773 213.039V217.039C481.81 217.039 484.046 218.004 485.17 219.346L488.237 216.779ZM477.773 213.039C474.4 213.039 471.407 213.848 468.904 215.572C466.406 217.293 464.548 219.822 463.262 223.01L466.972 224.506C468.03 221.881 469.453 220.051 471.174 218.866C472.89 217.683 475.053 217.039 477.773 217.039V213.039ZM463.117 223.761L463.188 276.003L467.187 275.997L467.117 223.755L463.117 223.761ZM465.188 274H444.867V278H465.188V274ZM446.867 276V227.555H442.867V276H446.867ZM446.867 227.555C446.867 222.968 445.979 219.182 443.766 216.67L440.765 219.314C442.021 220.74 442.867 223.329 442.867 227.555H446.867ZM443.766 216.67C441.477 214.071 437.819 213.039 433.406 213.039V217.039C437.337 217.039 439.586 217.976 440.765 219.314L443.766 216.67ZM433.406 213.039C430.244 213.039 427.402 213.696 424.959 215.097C422.509 216.501 420.573 218.586 419.13 221.262L422.651 223.16C423.787 221.054 425.226 219.554 426.948 218.567C428.676 217.577 430.803 217.039 433.406 217.039V213.039ZM418.891 222.211V276H422.891V222.211H418.891ZM420.891 274H400.57V278H420.891V274ZM402.57 276V199.922H398.57V276H402.57ZM400.57 201.922H419.625V197.922H400.57V201.922ZM546.75 276V278H548.75V276H546.75ZM526.359 276H524.359V278H526.359V276ZM526.359 199.922V197.922H524.359V199.922H526.359ZM546.75 199.922H548.75V197.922H546.75V199.922ZM528.188 172.711L526.807 171.264L526.798 171.272L526.79 171.28L528.188 172.711ZM544.781 187.828L543.417 186.366L543.408 186.374L543.4 186.381L544.781 187.828ZM528.258 187.828L526.877 189.275L526.885 189.283L526.893 189.29L528.258 187.828ZM546.75 274H526.359V278H546.75V274ZM528.359 276V199.922H524.359V276H528.359ZM526.359 201.922H546.75V197.922H526.359V201.922ZM544.75 199.922V276H548.75V199.922H544.75ZM527.164 180.234C527.164 177.678 527.988 175.701 529.585 174.142L526.79 171.28C524.356 173.658 523.164 176.697 523.164 180.234H527.164ZM529.568 174.158C531.177 172.623 533.427 171.758 536.555 171.758V167.758C532.651 167.758 529.323 168.862 526.807 171.264L529.568 174.158ZM536.555 171.758C539.627 171.758 541.857 172.618 543.471 174.158L546.233 171.264C543.721 168.867 540.42 167.758 536.555 167.758V171.758ZM543.471 174.158C545.108 175.721 545.945 177.692 545.945 180.234H549.945C549.945 176.683 548.72 173.638 546.233 171.264L543.471 174.158ZM545.945 180.234C545.945 182.819 545.089 184.805 543.417 186.366L546.146 189.29C548.692 186.914 549.945 183.838 549.945 180.234H545.945ZM543.4 186.381C541.782 187.926 539.572 188.781 536.555 188.781V192.781C540.382 192.781 543.655 191.668 546.162 189.275L543.4 186.381ZM536.555 188.781C533.539 188.781 531.294 187.926 529.622 186.366L526.893 189.29C529.44 191.667 532.726 192.781 536.555 192.781V188.781ZM529.639 186.381C528.007 184.824 527.164 182.833 527.164 180.234H523.164C523.164 183.823 524.383 186.894 526.877 189.275L529.639 186.381ZM567.844 258.141L566.494 256.665L566.486 256.672L566.478 256.68L567.844 258.141ZM584.297 258.141L582.931 259.602L582.939 259.609L582.947 259.616L584.297 258.141ZM584.367 273.82L585.716 275.297L585.724 275.289L585.733 275.281L584.367 273.82ZM567.844 273.82L566.478 275.281L566.487 275.289L566.495 275.297L567.844 273.82ZM566.609 266.016C566.609 263.276 567.499 261.201 569.21 259.602L566.478 256.68C563.876 259.112 562.609 262.286 562.609 266.016H566.609ZM569.194 259.616C570.991 257.972 573.235 257.117 576.07 257.117V253.117C572.343 253.117 569.103 254.278 566.494 256.665L569.194 259.616ZM576.07 257.117C578.961 257.117 581.193 257.977 582.931 259.602L585.663 256.68C583.088 254.273 579.836 253.117 576.07 253.117V257.117ZM582.947 259.616C584.699 261.219 585.602 263.29 585.602 266.016H589.602C589.602 262.272 588.301 259.093 585.647 256.665L582.947 259.616ZM585.602 266.016C585.602 268.699 584.718 270.754 583.001 272.359L585.733 275.281C588.329 272.855 589.602 269.708 589.602 266.016H585.602ZM583.019 272.343C581.288 273.924 579.029 274.773 576.07 274.773V278.773C579.861 278.773 583.134 277.655 585.716 275.297L583.019 272.343ZM576.07 274.773C573.166 274.773 570.928 273.928 569.192 272.343L566.495 275.297C569.072 277.65 572.318 278.773 576.07 278.773V274.773ZM569.21 272.359C567.493 270.754 566.609 268.699 566.609 266.016H562.609C562.609 269.708 563.882 272.855 566.478 275.281L569.21 272.359Z" fill="white"/>
</svg>
